{"asset":{"version":"2.0","generator":"Blockbench 5.1.4 glTF exporter"},"scenes":[{"nodes":[16,21],"name":"blockbench_export"}],"scene":0,"nodes":[{"translation":[0,0,-0.03125],"name":"body","mesh":0},{"translation":[0,-0.0625,0],"name":"head","mesh":1},{"rotation":[0,0,0.23768589232617307,0.9713420698132614],"translation":[-0.1796875,-0.008593749999999956,0],"name":"ear_right","mesh":2},{"translation":[0.09375,0.265625,0],"name":"ear_right","children":[2]},{"rotation":[0,0,-0.23768589232617307,0.9713420698132614],"translation":[0.1796875,-0.008593749999999956,0],"name":"ear_left","mesh":3},{"translation":[-0.09375,0.265625,0],"name":"ear_left","children":[4]},{"translation":[0,0.5625,0],"name":"head","children":[1,3,5]},{"translation":[-0.46875,0,-0.03125],"name":"arm_right","mesh":4},{"translation":[0.234375,0.4453125,0],"name":"arm_right","children":[7]},{"translation":[0.46875,0,-0.03125],"name":"arm_left","mesh":5},{"translation":[-0.234375,0.4453125,0],"name":"arm_left","children":[9]},{"translation":[0.46875,-0.25,-0.03125],"name":"body","children":[0,6,8,10]},{"translation":[-0.15625,0,-0.046875],"name":"leg_right","mesh":6},{"translation":[0.546875,-0.25,0],"name":"leg_right","children":[12]},{"translation":[0.15625,0,-0.046875],"name":"leg_left","mesh":7},{"translation":[0.390625,-0.25,0],"name":"leg_left","children":[14]},{"translation":[-0.46875,0.8125,0.03125],"name":"root","children":[11,13,15]},{"translation":[0,0,-0.03125],"name":"body","mesh":8},{"translation":[0,-0.0625,0],"name":"head","mesh":9},{"translation":[0,0.5625,0],"name":"head3","children":[18]},{"translation":[-0.46875,-0.25,-0.03125],"name":"body2","children":[17,19]},{"translation":[0.46875,0.8125,0.03125],"name":"root2","children":[20]}],"bufferViews":[{"buffer":0,"byteOffset":0,"byteLength":288,"target":34962,"byteStride":12},{"buffer":0,"byteOffset":288,"byteLength":288,"target":34962,"byteStride":12},{"buffer":0,"byteOffset":576,"byteLength":192,"target":34962,"byteStride":8},{"buffer":0,"byteOffset":768,"byteLength":72,"target":34963},{"buffer":0,"byteOffset":840,"byteLength":1512,"target":34962,"byteStride":12},{"buffer":0,"byteOffset":2352,"byteLength":1512,"target":34962,"byteStride":12},{"buffer":0,"byteOffset":3864,"byteLength":1008,"target":34962,"byteStride":8},{"buffer":0,"byteOffset":4872,"byteLength":336,"target":34963},{"buffer":0,"byteOffset":5208,"byteLength":768,"target":34962,"byteStride":12},{"buffer":0,"byteOffset":5976,"byteLength":768,"target":34962,"byteStride":12},{"buffer":0,"byteOffset":6744,"byteLength":512,"target":34962,"byteStride":8},{"buffer":0,"byteOffset":7256,"byteLength":192,"target":34963},{"buffer":0,"byteOffset":7448,"byteLength":768,"target":34962,"byteStride":12},{"buffer":0,"byteOffset":8216,"byteLength":768,"target":34962,"byteStride":12},{"buffer":0,"byteOffset":8984,"byteLength":512,"target":34962,"byteStride":8},{"buffer":0,"byteOffset":9496,"byteLength":192,"target":34963},{"buffer":0,"byteOffset":9688,"byteLength":288,"target":34962,"byteStride":12},{"buffer":0,"byteOffset":9976,"byteLength":288,"target":34962,"byteStride":12},{"buffer":0,"byteOffset":10264,"byteLength":192,"target":34962,"byteStride":8},{"buffer":0,"byteOffset":10456,"byteLength":72,"target":34963},{"buffer":0,"byteOffset":10528,"byteLength":288,"target":34962,"byteStride":12},{"buffer":0,"byteOffset":10816,"byteLength":288,"target":34962,"byteStride":12},{"buffer":0,"byteOffset":11104,"byteLength":192,"target":34962,"byteStride":8},{"buffer":0,"byteOffset":11296,"byteLength":72,"target":34963},{"buffer":0,"byteOffset":11368,"byteLength":288,"target":34962,"byteStride":12},{"buffer":0,"byteOffset":11656,"byteLength":288,"target":34962,"byteStride":12},{"buffer":0,"byteOffset":11944,"byteLength":192,"target":34962,"byteStride":8},{"buffer":0,"byteOffset":12136,"byteLength":72,"target":34963},{"buffer":0,"byteOffset":12208,"byteLength":288,"target":34962,"byteStride":12},{"buffer":0,"byteOffset":12496,"byteLength":288,"target":34962,"byteStride":12},{"buffer":0,"byteOffset":12784,"byteLength":192,"target":34962,"byteStride":8},{"buffer":0,"byteOffset":12976,"byteLength":72,"target":34963},{"buffer":0,"byteOffset":13048,"byteLength":288,"target":34962,"byteStride":12},{"buffer":0,"byteOffset":13336,"byteLength":288,"target":34962,"byteStride":12},{"buffer":0,"byteOffset":13624,"byteLength":192,"target":34962,"byteStride":8},{"buffer":0,"byteOffset":13816,"byteLength":72,"target":34963},{"buffer":0,"byteOffset":13888,"byteLength":1512,"target":34962,"byteStride":12},{"buffer":0,"byteOffset":15400,"byteLength":1512,"target":34962,"byteStride":12},{"buffer":0,"byteOffset":16912,"byteLength":1008,"target":34962,"byteStride":8},{"buffer":0,"byteOffset":17920,"byteLength":336,"target":34963},{"buffer":0,"byteOffset":18256,"byteLength":56},{"buffer":0,"byteOffset":18312,"byteLength":224},{"buffer":0,"byteOffset":18536,"byteLength":56},{"buffer":0,"byteOffset":18592,"byteLength":224},{"buffer":0,"byteOffset":18816,"byteLength":56},{"buffer":0,"byteOffset":18872,"byteLength":224},{"buffer":0,"byteOffset":19096,"byteLength":56},{"buffer":0,"byteOffset":19152,"byteLength":224}],"buffers":[{"byteLength":19376,"uri":"data:application/octet-stream;base64,"}],"accessors":[{"bufferView":0,"componentType":5126,"count":24,"max":[0.15625,0.5,0.09375],"min":[-0.15625,0,-0.0625],"type":"VEC3"},{"bufferView":1,"componentType":5126,"count":24,"max":[1,1,1],"min":[-1,-1,-1],"type":"VEC3"},{"bufferView":2,"componentType":5126,"count":24,"max":[0.8125,0.84375],"min":[0,0],"type":"VEC2"},{"bufferView":3,"componentType":5123,"count":36,"max":[23],"min":[0],"type":"SCALAR"},{"bufferView":4,"componentType":5126,"count":126,"max":[0.1875,0.359375,0.2324896901845932],"min":[-0.1875,-0.015625,-0.1425103098154068],"type":"VEC3"},{"bufferView":5,"componentType":5126,"count":126,"max":[0.9764933586120605,0.9744132161140442,0.9104995727539062],"min":[-0.9764933586120605,-0.9658718705177307,-1],"type":"VEC3"},{"bufferView":6,"componentType":5126,"count":126,"max":[0.609375,0.708092212677002],"min":[0,0],"type":"VEC2"},{"bufferView":7,"componentType":5123,"count":168,"max":[125],"min":[0],"type":"SCALAR"},{"bufferView":8,"componentType":5126,"count":64,"max":[0.06917218863964081,0.11324624717235565,0.05859375],"min":[-0.07145281136035919,-0.02737874910235405,-0.08203125],"type":"VEC3"},{"bufferView":9,"componentType":5126,"count":64,"max":[0.9955949783325195,0.7137835621833801,1],"min":[-0.9955943822860718,-1,-1],"type":"VEC3"},{"bufferView":10,"componentType":5126,"count":64,"max":[0.7437682747840881,0.7312390804290771],"min":[0.173828125,0.125],"type":"VEC2"},{"bufferView":11,"componentType":5123,"count":96,"max":[63],"min":[0],"type":"SCALAR"},{"bufferView":12,"componentType":5126,"count":64,"max":[0.07145281136035919,0.11324624717235565,0.05859375],"min":[-0.06917218863964081,-0.02737874910235405,-0.08203125],"type":"VEC3"},{"bufferView":13,"componentType":5126,"count":64,"max":[0.9955943822860718,0.7137835621833801,1],"min":[-0.9955949783325195,-1,-1],"type":"VEC3"},{"bufferView":14,"componentType":5126,"count":64,"max":[0.734375,0.7468640804290771],"min":[0.14685672521591187,0],"type":"VEC2"},{"bufferView":15,"componentType":5123,"count":96,"max":[63],"min":[0],"type":"SCALAR"},{"bufferView":16,"componentType":5126,"count":24,"max":[0.078125,0.0546875,0.09375],"min":[-0.078125,-0.5078125,-0.0625],"type":"VEC3"},{"bufferView":17,"componentType":5126,"count":24,"max":[1,1,1],"min":[-1,-1,-1],"type":"VEC3"},{"bufferView":18,"componentType":5126,"count":24,"max":[0.734375,0.8125],"min":[0.375,0],"type":"VEC2"},{"bufferView":19,"componentType":5123,"count":36,"max":[23],"min":[0],"type":"SCALAR"},{"bufferView":20,"componentType":5126,"count":24,"max":[0.078125,0.0546875,0.09375],"min":[-0.078125,-0.5078125,-0.0625],"type":"VEC3"},{"bufferView":21,"componentType":5126,"count":24,"max":[1,1,1],"min":[-1,-1,-1],"type":"VEC3"},{"bufferView":22,"componentType":5126,"count":24,"max":[0.828125,0.84375],"min":[0,0],"type":"VEC2"},{"bufferView":23,"componentType":5123,"count":36,"max":[23],"min":[0],"type":"SCALAR"},{"bufferView":24,"componentType":5126,"count":24,"max":[0.078125,0,0.078125],"min":[-0.078125,-0.5625,-0.078125],"type":"VEC3"},{"bufferView":25,"componentType":5126,"count":24,"max":[1,1,1],"min":[-1,-1,-1],"type":"VEC3"},{"bufferView":26,"componentType":5126,"count":24,"max":[0.828125,0.875],"min":[0.28125,0.296875],"type":"VEC2"},{"bufferView":27,"componentType":5123,"count":36,"max":[23],"min":[0],"type":"SCALAR"},{"bufferView":28,"componentType":5126,"count":24,"max":[0.078125,0,0.078125],"min":[-0.078125,-0.5625,-0.078125],"type":"VEC3"},{"bufferView":29,"componentType":5126,"count":24,"max":[1,1,1],"min":[-1,-1,-1],"type":"VEC3"},{"bufferView":30,"componentType":5126,"count":24,"max":[0.734375,0.625],"min":[0,0.265625],"type":"VEC2"},{"bufferView":31,"componentType":5123,"count":36,"max":[23],"min":[0],"type":"SCALAR"},{"bufferView":32,"componentType":5126,"count":24,"max":[0.15625,0.5,0.09375],"min":[-0.15625,0,-0.0625],"type":"VEC3"},{"bufferView":33,"componentType":5126,"count":24,"max":[1,1,1],"min":[-1,-1,-1],"type":"VEC3"},{"bufferView":34,"componentType":5126,"count":24,"max":[0.8125,0.84375],"min":[0,0],"type":"VEC2"},{"bufferView":35,"componentType":5123,"count":36,"max":[23],"min":[0],"type":"SCALAR"},{"bufferView":36,"componentType":5126,"count":126,"max":[0.1875,0.359375,0.2324896901845932],"min":[-0.1875,-0.015625,-0.1425103098154068],"type":"VEC3"},{"bufferView":37,"componentType":5126,"count":126,"max":[0.9764933586120605,0.9744132161140442,0.9104995727539062],"min":[-0.9764933586120605,-0.9658718705177307,-1],"type":"VEC3"},{"bufferView":38,"componentType":5126,"count":126,"max":[0.609375,0.708092212677002],"min":[0,0],"type":"VEC2"},{"bufferView":39,"componentType":5123,"count":168,"max":[125],"min":[0],"type":"SCALAR"},{"bufferView":40,"componentType":5126,"count":14,"max":[0.75],"min":[0],"type":"SCALAR"},{"bufferView":41,"componentType":5126,"count":14,"max":[0.258819043636322,0,0,0.9990560412406921],"min":[-0.258819043636322,0,0,0.9659258127212524],"type":"VEC4"},{"bufferView":42,"componentType":5126,"count":14,"max":[0.75],"min":[0],"type":"SCALAR"},{"bufferView":43,"componentType":5126,"count":14,"max":[0.258819043636322,0,0,0.9990560412406921],"min":[-0.258819043636322,0,0,0.9659258127212524],"type":"VEC4"},{"bufferView":44,"componentType":5126,"count":14,"max":[0.75],"min":[0],"type":"SCALAR"},{"bufferView":45,"componentType":5126,"count":14,"max":[0.15212339162826538,0,0,0.9996787309646606],"min":[-0.15212339162826538,0,0,0.9883615374565125],"type":"VEC4"},{"bufferView":46,"componentType":5126,"count":14,"max":[0.75],"min":[0],"type":"SCALAR"},{"bufferView":47,"componentType":5126,"count":14,"max":[0.15212339162826538,0,0,0.9996787309646606],"min":[-0.15212339162826538,0,0,0.9883615374565125],"type":"VEC4"}],"materials":[{"pbrMetallicRoughness":{"metallicFactor":0,"roughnessFactor":1,"baseColorTexture":{"index":0}},"alphaMode":"MASK","alphaCutoff":0.05,"doubleSided":true},{"pbrMetallicRoughness":{"metallicFactor":0,"roughnessFactor":1,"baseColorTexture":{"index":1}},"alphaMode":"MASK","alphaCutoff":0.05,"doubleSided":true}],"textures":[{"sampler":0,"source":0,"name":"black_cat_body.png"},{"sampler":1,"source":1,"name":"blac_cat.png"}],"samplers":[{"magFilter":9728,"minFilter":9728,"wrapS":33071,"wrapT":33071},{"magFilter":9728,"minFilter":9728,"wrapS":33071,"wrapT":33071}],"images":[{"mimeType":"image/png","uri":"data:image/png;base64,"},{"mimeType":"image/png","uri":"data:image/png;base64,"}],"meshes":[{"primitives":[{"mode":4,"attributes":{"POSITION":0,"NORMAL":1,"TEXCOORD_0":2},"indices":3,"material":0}]},{"primitives":[{"mode":4,"attributes":{"POSITION":4,"NORMAL":5,"TEXCOORD_0":6},"indices":7,"material":1}]},{"primitives":[{"mode":4,"attributes":{"POSITION":8,"NORMAL":9,"TEXCOORD_0":10},"indices":11,"material":1}]},{"primitives":[{"mode":4,"attributes":{"POSITION":12,"NORMAL":13,"TEXCOORD_0":14},"indices":15,"material":1}]},{"primitives":[{"mode":4,"attributes":{"POSITION":16,"NORMAL":17,"TEXCOORD_0":18},"indices":19,"material":0}]},{"primitives":[{"mode":4,"attributes":{"POSITION":20,"NORMAL":21,"TEXCOORD_0":22},"indices":23,"material":0}]},{"primitives":[{"mode":4,"attributes":{"POSITION":24,"NORMAL":25,"TEXCOORD_0":26},"indices":27,"material":0}]},{"primitives":[{"mode":4,"attributes":{"POSITION":28,"NORMAL":29,"TEXCOORD_0":30},"indices":31,"material":0}]},{"primitives":[{"mode":4,"attributes":{"POSITION":32,"NORMAL":33,"TEXCOORD_0":34},"indices":35,"material":0}]},{"primitives":[{"mode":4,"attributes":{"POSITION":36,"NORMAL":37,"TEXCOORD_0":38},"indices":39,"material":1}]}],"animations":[{"name":"walk","samplers":[{"input":40,"output":41,"interpolation":"LINEAR"},{"input":42,"output":43,"interpolation":"LINEAR"},{"input":44,"output":45,"interpolation":"LINEAR"},{"input":46,"output":47,"interpolation":"LINEAR"}],"channels":[{"sampler":0,"target":{"node":13,"path":"rotation"}},{"sampler":1,"target":{"node":15,"path":"rotation"}},{"sampler":2,"target":{"node":8,"path":"rotation"}},{"sampler":3,"target":{"node":10,"path":"rotation"}}]}]}