{"asset":{"version":"2.0","generator":"Blockbench 5.1.4 glTF exporter"},"scenes":[{"nodes":[16,21],"name":"blockbench_export"}],"scene":0,"nodes":[{"rotation":[0,0,0.23768589232617307,0.9713420698132614],"translation":[-0.1796875,-0.008593749999999956,0],"name":"ear_right","mesh":0},{"translation":[0.09375,0.265625,0],"name":"ear_right","children":[0]},{"rotation":[0,0,-0.23768589232617307,0.9713420698132614],"translation":[0.1796875,-0.008593749999999956,0],"name":"ear_left","mesh":1},{"translation":[-0.09375,0.265625,0],"name":"ear_left","children":[2]},{"translation":[0,-0.0625,0],"name":"head","mesh":2},{"translation":[0,0.5625,0],"name":"head","children":[1,3,4]},{"translation":[-0.46875,0,-0.03125],"name":"arm_right","mesh":3},{"translation":[0.234375,0.4453125,0],"name":"arm_right","children":[6]},{"translation":[0.46875,0,-0.03125],"name":"arm_left","mesh":4},{"translation":[-0.234375,0.4453125,0],"name":"arm_left","children":[8]},{"translation":[0,0,-0.03125],"name":"body","mesh":5},{"translation":[0.46875,-0.25,-0.03125],"name":"body","children":[5,7,9,10]},{"translation":[-0.15625,0,-0.046875],"name":"leg_right","mesh":6},{"translation":[0.546875,-0.25,0],"name":"leg_right","children":[12]},{"translation":[0.15625,0,-0.046875],"name":"leg_left","mesh":7},{"translation":[0.390625,-0.25,0],"name":"leg_left","children":[14]},{"translation":[-0.46875,0.8125,0.03125],"name":"root","children":[11,13,15]},{"translation":[0,-0.0625,0],"name":"head","mesh":8},{"translation":[0,0.5625,0],"name":"head3","children":[17]},{"translation":[0,0,-0.03125],"name":"body","mesh":9},{"translation":[-0.46875,-0.25,-0.03125],"name":"body2","children":[18,19]},{"translation":[0.46875,0.8125,0.03125],"name":"root2","children":[20]}],"bufferViews":[{"buffer":0,"byteOffset":0,"byteLength":768,"target":34962,"byteStride":12},{"buffer":0,"byteOffset":768,"byteLength":768,"target":34962,"byteStride":12},{"buffer":0,"byteOffset":1536,"byteLength":512,"target":34962,"byteStride":8},{"buffer":0,"byteOffset":2048,"byteLength":192,"target":34963},{"buffer":0,"byteOffset":2240,"byteLength":768,"target":34962,"byteStride":12},{"buffer":0,"byteOffset":3008,"byteLength":768,"target":34962,"byteStride":12},{"buffer":0,"byteOffset":3776,"byteLength":512,"target":34962,"byteStride":8},{"buffer":0,"byteOffset":4288,"byteLength":192,"target":34963},{"buffer":0,"byteOffset":4480,"byteLength":1512,"target":34962,"byteStride":12},{"buffer":0,"byteOffset":5992,"byteLength":1512,"target":34962,"byteStride":12},{"buffer":0,"byteOffset":7504,"byteLength":1008,"target":34962,"byteStride":8},{"buffer":0,"byteOffset":8512,"byteLength":336,"target":34963},{"buffer":0,"byteOffset":8848,"byteLength":288,"target":34962,"byteStride":12},{"buffer":0,"byteOffset":9136,"byteLength":288,"target":34962,"byteStride":12},{"buffer":0,"byteOffset":9424,"byteLength":192,"target":34962,"byteStride":8},{"buffer":0,"byteOffset":9616,"byteLength":72,"target":34963},{"buffer":0,"byteOffset":9688,"byteLength":288,"target":34962,"byteStride":12},{"buffer":0,"byteOffset":9976,"byteLength":288,"target":34962,"byteStride":12},{"buffer":0,"byteOffset":10264,"byteLength":192,"target":34962,"byteStride":8},{"buffer":0,"byteOffset":10456,"byteLength":72,"target":34963},{"buffer":0,"byteOffset":10528,"byteLength":288,"target":34962,"byteStride":12},{"buffer":0,"byteOffset":10816,"byteLength":288,"target":34962,"byteStride":12},{"buffer":0,"byteOffset":11104,"byteLength":192,"target":34962,"byteStride":8},{"buffer":0,"byteOffset":11296,"byteLength":72,"target":34963},{"buffer":0,"byteOffset":11368,"byteLength":288,"target":34962,"byteStride":12},{"buffer":0,"byteOffset":11656,"byteLength":288,"target":34962,"byteStride":12},{"buffer":0,"byteOffset":11944,"byteLength":192,"target":34962,"byteStride":8},{"buffer":0,"byteOffset":12136,"byteLength":72,"target":34963},{"buffer":0,"byteOffset":12208,"byteLength":288,"target":34962,"byteStride":12},{"buffer":0,"byteOffset":12496,"byteLength":288,"target":34962,"byteStride":12},{"buffer":0,"byteOffset":12784,"byteLength":192,"target":34962,"byteStride":8},{"buffer":0,"byteOffset":12976,"byteLength":72,"target":34963},{"buffer":0,"byteOffset":13048,"byteLength":1512,"target":34962,"byteStride":12},{"buffer":0,"byteOffset":14560,"byteLength":1512,"target":34962,"byteStride":12},{"buffer":0,"byteOffset":16072,"byteLength":1008,"target":34962,"byteStride":8},{"buffer":0,"byteOffset":17080,"byteLength":336,"target":34963},{"buffer":0,"byteOffset":17416,"byteLength":288,"target":34962,"byteStride":12},{"buffer":0,"byteOffset":17704,"byteLength":288,"target":34962,"byteStride":12},{"buffer":0,"byteOffset":17992,"byteLength":192,"target":34962,"byteStride":8},{"buffer":0,"byteOffset":18184,"byteLength":72,"target":34963},{"buffer":0,"byteOffset":18256,"byteLength":56},{"buffer":0,"byteOffset":18312,"byteLength":224},{"buffer":0,"byteOffset":18536,"byteLength":56},{"buffer":0,"byteOffset":18592,"byteLength":224},{"buffer":0,"byteOffset":18816,"byteLength":56},{"buffer":0,"byteOffset":18872,"byteLength":224},{"buffer":0,"byteOffset":19096,"byteLength":56},{"buffer":0,"byteOffset":19152,"byteLength":224},{"buffer":0,"byteOffset":19376,"byteLength":4},{"buffer":0,"byteOffset":19380,"byteLength":16},{"buffer":0,"byteOffset":19396,"byteLength":4},{"buffer":0,"byteOffset":19400,"byteLength":12},{"buffer":0,"byteOffset":19412,"byteLength":4},{"buffer":0,"byteOffset":19416,"byteLength":12},{"buffer":0,"byteOffset":19428,"byteLength":4},{"buffer":0,"byteOffset":19432,"byteLength":16},{"buffer":0,"byteOffset":19448,"byteLength":4},{"buffer":0,"byteOffset":19452,"byteLength":12},{"buffer":0,"byteOffset":19464,"byteLength":4},{"buffer":0,"byteOffset":19468,"byteLength":12},{"buffer":0,"byteOffset":19480,"byteLength":4},{"buffer":0,"byteOffset":19484,"byteLength":16},{"buffer":0,"byteOffset":19500,"byteLength":4},{"buffer":0,"byteOffset":19504,"byteLength":12},{"buffer":0,"byteOffset":19516,"byteLength":4},{"buffer":0,"byteOffset":19520,"byteLength":12},{"buffer":0,"byteOffset":19532,"byteLength":4},{"buffer":0,"byteOffset":19536,"byteLength":16},{"buffer":0,"byteOffset":19552,"byteLength":4},{"buffer":0,"byteOffset":19556,"byteLength":12},{"buffer":0,"byteOffset":19568,"byteLength":4},{"buffer":0,"byteOffset":19572,"byteLength":12},{"buffer":0,"byteOffset":19584,"byteLength":4},{"buffer":0,"byteOffset":19588,"byteLength":16},{"buffer":0,"byteOffset":19604,"byteLength":4},{"buffer":0,"byteOffset":19608,"byteLength":12},{"buffer":0,"byteOffset":19620,"byteLength":4},{"buffer":0,"byteOffset":19624,"byteLength":12},{"buffer":0,"byteOffset":19636,"byteLength":4},{"buffer":0,"byteOffset":19640,"byteLength":16},{"buffer":0,"byteOffset":19656,"byteLength":4},{"buffer":0,"byteOffset":19660,"byteLength":12},{"buffer":0,"byteOffset":19672,"byteLength":4},{"buffer":0,"byteOffset":19676,"byteLength":12},{"buffer":0,"byteOffset":19688,"byteLength":4},{"buffer":0,"byteOffset":19692,"byteLength":16},{"buffer":0,"byteOffset":19708,"byteLength":4},{"buffer":0,"byteOffset":19712,"byteLength":12},{"buffer":0,"byteOffset":19724,"byteLength":4},{"buffer":0,"byteOffset":19728,"byteLength":12},{"buffer":0,"byteOffset":19740,"byteLength":4},{"buffer":0,"byteOffset":19744,"byteLength":16},{"buffer":0,"byteOffset":19760,"byteLength":4},{"buffer":0,"byteOffset":19764,"byteLength":12},{"buffer":0,"byteOffset":19776,"byteLength":4},{"buffer":0,"byteOffset":19780,"byteLength":12}],"buffers":[{"byteLength":19792,"uri":"data:application/octet-stream;base64,"}],"accessors":[{"bufferView":0,"componentType":5126,"count":64,"max":[0.06917250156402588,0.11324624717235565,0.05859375],"min":[-0.07145249843597412,-0.02737874910235405,-0.08203125],"type":"VEC3"},{"bufferView":1,"componentType":5126,"count":64,"max":[0.9955949187278748,0.713782012462616,1],"min":[-0.9955949187278748,-1,-1],"type":"VEC3"},{"bufferView":2,"componentType":5126,"count":64,"max":[0.7437682747840881,0.7312390804290771],"min":[0.173828125,0.125],"type":"VEC2"},{"bufferView":3,"componentType":5123,"count":96,"max":[63],"min":[0],"type":"SCALAR"},{"bufferView":4,"componentType":5126,"count":64,"max":[0.07145312428474426,0.11324624717235565,0.05859375],"min":[-0.06917187571525574,-0.02737874910235405,-0.08203125],"type":"VEC3"},{"bufferView":5,"componentType":5126,"count":64,"max":[0.9955937266349792,0.713782012462616,1],"min":[-0.9955949187278748,-1,-1],"type":"VEC3"},{"bufferView":6,"componentType":5126,"count":64,"max":[0.734375,0.7468640804290771],"min":[0.14685672521591187,0],"type":"VEC2"},{"bufferView":7,"componentType":5123,"count":96,"max":[63],"min":[0],"type":"SCALAR"},{"bufferView":8,"componentType":5126,"count":126,"max":[0.1875,0.359375,0.23249000310897827],"min":[-0.1875,-0.015625,-0.14251062273979187],"type":"VEC3"},{"bufferView":9,"componentType":5126,"count":126,"max":[0.9764937162399292,0.9744132161140442,0.9104998707771301],"min":[-0.9764929413795471,-0.9658718109130859,-1],"type":"VEC3"},{"bufferView":10,"componentType":5126,"count":126,"max":[0.609375,0.708092212677002],"min":[0,0],"type":"VEC2"},{"bufferView":11,"componentType":5123,"count":168,"max":[125],"min":[0],"type":"SCALAR"},{"bufferView":12,"componentType":5126,"count":24,"max":[0.078125,0.0546875,0.09375],"min":[-0.078125,-0.5078125,-0.0625],"type":"VEC3"},{"bufferView":13,"componentType":5126,"count":24,"max":[1,1,1],"min":[-1,-1,-1],"type":"VEC3"},{"bufferView":14,"componentType":5126,"count":24,"max":[0.734375,0.8125],"min":[0.375,0],"type":"VEC2"},{"bufferView":15,"componentType":5123,"count":36,"max":[23],"min":[0],"type":"SCALAR"},{"bufferView":16,"componentType":5126,"count":24,"max":[0.078125,0.0546875,0.09375],"min":[-0.078125,-0.5078125,-0.0625],"type":"VEC3"},{"bufferView":17,"componentType":5126,"count":24,"max":[1,1,1],"min":[-1,-1,-1],"type":"VEC3"},{"bufferView":18,"componentType":5126,"count":24,"max":[0.828125,0.84375],"min":[0,0],"type":"VEC2"},{"bufferView":19,"componentType":5123,"count":36,"max":[23],"min":[0],"type":"SCALAR"},{"bufferView":20,"componentType":5126,"count":24,"max":[0.15625,0.5,0.09375],"min":[-0.15625,0,-0.0625],"type":"VEC3"},{"bufferView":21,"componentType":5126,"count":24,"max":[1,1,1],"min":[-1,-1,-1],"type":"VEC3"},{"bufferView":22,"componentType":5126,"count":24,"max":[0.8125,0.84375],"min":[0,0],"type":"VEC2"},{"bufferView":23,"componentType":5123,"count":36,"max":[23],"min":[0],"type":"SCALAR"},{"bufferView":24,"componentType":5126,"count":24,"max":[0.078125,0,0.078125],"min":[-0.078125,-0.5625,-0.078125],"type":"VEC3"},{"bufferView":25,"componentType":5126,"count":24,"max":[1,1,1],"min":[-1,-1,-1],"type":"VEC3"},{"bufferView":26,"componentType":5126,"count":24,"max":[0.828125,0.875],"min":[0.28125,0.296875],"type":"VEC2"},{"bufferView":27,"componentType":5123,"count":36,"max":[23],"min":[0],"type":"SCALAR"},{"bufferView":28,"componentType":5126,"count":24,"max":[0.078125,0,0.078125],"min":[-0.078125,-0.5625,-0.078125],"type":"VEC3"},{"bufferView":29,"componentType":5126,"count":24,"max":[1,1,1],"min":[-1,-1,-1],"type":"VEC3"},{"bufferView":30,"componentType":5126,"count":24,"max":[0.734375,0.625],"min":[0,0.265625],"type":"VEC2"},{"bufferView":31,"componentType":5123,"count":36,"max":[23],"min":[0],"type":"SCALAR"},{"bufferView":32,"componentType":5126,"count":126,"max":[0.1875,0.359375,0.23249000310897827],"min":[-0.1875,-0.015625,-0.14251062273979187],"type":"VEC3"},{"bufferView":33,"componentType":5126,"count":126,"max":[0.9764937162399292,0.9744132161140442,0.9104998707771301],"min":[-0.9764929413795471,-0.9658718109130859,-1],"type":"VEC3"},{"bufferView":34,"componentType":5126,"count":126,"max":[0.609375,0.708092212677002],"min":[0,0],"type":"VEC2"},{"bufferView":35,"componentType":5123,"count":168,"max":[125],"min":[0],"type":"SCALAR"},{"bufferView":36,"componentType":5126,"count":24,"max":[0.15625,0.5,0.09375],"min":[-0.15625,0,-0.0625],"type":"VEC3"},{"bufferView":37,"componentType":5126,"count":24,"max":[1,1,1],"min":[-1,-1,-1],"type":"VEC3"},{"bufferView":38,"componentType":5126,"count":24,"max":[0.8125,0.84375],"min":[0,0],"type":"VEC2"},{"bufferView":39,"componentType":5123,"count":36,"max":[23],"min":[0],"type":"SCALAR"},{"bufferView":40,"componentType":5126,"count":14,"max":[0.75],"min":[0],"type":"SCALAR"},{"bufferView":41,"componentType":5126,"count":14,"max":[0.258819043636322,0,0,0.9990560412406921],"min":[-0.258819043636322,0,0,0.9659258127212524],"type":"VEC4"},{"bufferView":42,"componentType":5126,"count":14,"max":[0.75],"min":[0],"type":"SCALAR"},{"bufferView":43,"componentType":5126,"count":14,"max":[0.258819043636322,0,0,0.9990560412406921],"min":[-0.258819043636322,0,0,0.9659258127212524],"type":"VEC4"},{"bufferView":44,"componentType":5126,"count":14,"max":[0.75],"min":[0],"type":"SCALAR"},{"bufferView":45,"componentType":5126,"count":14,"max":[0.15212339162826538,0,0,0.9996787309646606],"min":[-0.15212339162826538,0,0,0.9883615374565125],"type":"VEC4"},{"bufferView":46,"componentType":5126,"count":14,"max":[0.75],"min":[0],"type":"SCALAR"},{"bufferView":47,"componentType":5126,"count":14,"max":[0.15212339162826538,0,0,0.9996787309646606],"min":[-0.15212339162826538,0,0,0.9883615374565125],"type":"VEC4"},{"bufferView":48,"componentType":5126,"count":1,"max":[0],"min":[0],"type":"SCALAR"},{"bufferView":49,"componentType":5126,"count":1,"max":[0,0,0,1],"min":[0,0,0,1],"type":"VEC4"},{"bufferView":50,"componentType":5126,"count":1,"max":[0],"min":[0],"type":"SCALAR"},{"bufferView":51,"componentType":5126,"count":1,"max":[0.46875,-0.25,-0.03125],"min":[0.46875,-0.25,-0.03125],"type":"VEC3"},{"bufferView":52,"componentType":5126,"count":1,"max":[0],"min":[0],"type":"SCALAR"},{"bufferView":53,"componentType":5126,"count":1,"max":[1,1,1],"min":[1,1,1],"type":"VEC3"},{"bufferView":54,"componentType":5126,"count":1,"max":[0],"min":[0],"type":"SCALAR"},{"bufferView":55,"componentType":5126,"count":1,"max":[0,0,0,1],"min":[0,0,0,1],"type":"VEC4"},{"bufferView":56,"componentType":5126,"count":1,"max":[0],"min":[0],"type":"SCALAR"},{"bufferView":57,"componentType":5126,"count":1,"max":[0,0.5625,0],"min":[0,0.5625,0],"type":"VEC3"},{"bufferView":58,"componentType":5126,"count":1,"max":[0],"min":[0],"type":"SCALAR"},{"bufferView":59,"componentType":5126,"count":1,"max":[1,1,1],"min":[1,1,1],"type":"VEC3"},{"bufferView":60,"componentType":5126,"count":1,"max":[0],"min":[0],"type":"SCALAR"},{"bufferView":61,"componentType":5126,"count":1,"max":[0,0,0,1],"min":[0,0,0,1],"type":"VEC4"},{"bufferView":62,"componentType":5126,"count":1,"max":[0],"min":[0],"type":"SCALAR"},{"bufferView":63,"componentType":5126,"count":1,"max":[0.09375,0.265625,0],"min":[0.09375,0.265625,0],"type":"VEC3"},{"bufferView":64,"componentType":5126,"count":1,"max":[0],"min":[0],"type":"SCALAR"},{"bufferView":65,"componentType":5126,"count":1,"max":[1,1,1],"min":[1,1,1],"type":"VEC3"},{"bufferView":66,"componentType":5126,"count":1,"max":[0],"min":[0],"type":"SCALAR"},{"bufferView":67,"componentType":5126,"count":1,"max":[0,0,0,1],"min":[0,0,0,1],"type":"VEC4"},{"bufferView":68,"componentType":5126,"count":1,"max":[0],"min":[0],"type":"SCALAR"},{"bufferView":69,"componentType":5126,"count":1,"max":[-0.09375,0.265625,0],"min":[-0.09375,0.265625,0],"type":"VEC3"},{"bufferView":70,"componentType":5126,"count":1,"max":[0],"min":[0],"type":"SCALAR"},{"bufferView":71,"componentType":5126,"count":1,"max":[1,1,1],"min":[1,1,1],"type":"VEC3"},{"bufferView":72,"componentType":5126,"count":1,"max":[0],"min":[0],"type":"SCALAR"},{"bufferView":73,"componentType":5126,"count":1,"max":[0,0,0,1],"min":[0,0,0,1],"type":"VEC4"},{"bufferView":74,"componentType":5126,"count":1,"max":[0],"min":[0],"type":"SCALAR"},{"bufferView":75,"componentType":5126,"count":1,"max":[0.546875,-0.25,0],"min":[0.546875,-0.25,0],"type":"VEC3"},{"bufferView":76,"componentType":5126,"count":1,"max":[0],"min":[0],"type":"SCALAR"},{"bufferView":77,"componentType":5126,"count":1,"max":[1,1,1],"min":[1,1,1],"type":"VEC3"},{"bufferView":78,"componentType":5126,"count":1,"max":[0],"min":[0],"type":"SCALAR"},{"bufferView":79,"componentType":5126,"count":1,"max":[0,0,0,1],"min":[0,0,0,1],"type":"VEC4"},{"bufferView":80,"componentType":5126,"count":1,"max":[0],"min":[0],"type":"SCALAR"},{"bufferView":81,"componentType":5126,"count":1,"max":[0.390625,-0.25,0],"min":[0.390625,-0.25,0],"type":"VEC3"},{"bufferView":82,"componentType":5126,"count":1,"max":[0],"min":[0],"type":"SCALAR"},{"bufferView":83,"componentType":5126,"count":1,"max":[1,1,1],"min":[1,1,1],"type":"VEC3"},{"bufferView":84,"componentType":5126,"count":1,"max":[0],"min":[0],"type":"SCALAR"},{"bufferView":85,"componentType":5126,"count":1,"max":[0,0,0,1],"min":[0,0,0,1],"type":"VEC4"},{"bufferView":86,"componentType":5126,"count":1,"max":[0],"min":[0],"type":"SCALAR"},{"bufferView":87,"componentType":5126,"count":1,"max":[0.234375,0.4453125,0],"min":[0.234375,0.4453125,0],"type":"VEC3"},{"bufferView":88,"componentType":5126,"count":1,"max":[0],"min":[0],"type":"SCALAR"},{"bufferView":89,"componentType":5126,"count":1,"max":[1,1,1],"min":[1,1,1],"type":"VEC3"},{"bufferView":90,"componentType":5126,"count":1,"max":[0],"min":[0],"type":"SCALAR"},{"bufferView":91,"componentType":5126,"count":1,"max":[0,0,0,1],"min":[0,0,0,1],"type":"VEC4"},{"bufferView":92,"componentType":5126,"count":1,"max":[0],"min":[0],"type":"SCALAR"},{"bufferView":93,"componentType":5126,"count":1,"max":[-0.234375,0.4453125,0],"min":[-0.234375,0.4453125,0],"type":"VEC3"},{"bufferView":94,"componentType":5126,"count":1,"max":[0],"min":[0],"type":"SCALAR"},{"bufferView":95,"componentType":5126,"count":1,"max":[1,1,1],"min":[1,1,1],"type":"VEC3"}],"materials":[{"pbrMetallicRoughness":{"metallicFactor":0,"roughnessFactor":1,"baseColorTexture":{"index":0}},"alphaMode":"MASK","alphaCutoff":0.05,"doubleSided":true},{"pbrMetallicRoughness":{"metallicFactor":0,"roughnessFactor":1,"baseColorTexture":{"index":1}},"alphaMode":"MASK","alphaCutoff":0.05,"doubleSided":true}],"textures":[{"sampler":0,"source":0,"name":"blac_cat.png"},{"sampler":1,"source":1,"name":"black_cat_body.png"}],"samplers":[{"magFilter":9728,"minFilter":9728,"wrapS":33071,"wrapT":33071},{"magFilter":9728,"minFilter":9728,"wrapS":33071,"wrapT":33071}],"images":[{"mimeType":"image/png","uri":"data:image/png;base64,"},{"mimeType":"image/png","uri":"data:image/png;base64,"}],"meshes":[{"primitives":[{"mode":4,"attributes":{"POSITION":0,"NORMAL":1,"TEXCOORD_0":2},"indices":3,"material":0}]},{"primitives":[{"mode":4,"attributes":{"POSITION":4,"NORMAL":5,"TEXCOORD_0":6},"indices":7,"material":0}]},{"primitives":[{"mode":4,"attributes":{"POSITION":8,"NORMAL":9,"TEXCOORD_0":10},"indices":11,"material":0}]},{"primitives":[{"mode":4,"attributes":{"POSITION":12,"NORMAL":13,"TEXCOORD_0":14},"indices":15,"material":1}]},{"primitives":[{"mode":4,"attributes":{"POSITION":16,"NORMAL":17,"TEXCOORD_0":18},"indices":19,"material":1}]},{"primitives":[{"mode":4,"attributes":{"POSITION":20,"NORMAL":21,"TEXCOORD_0":22},"indices":23,"material":1}]},{"primitives":[{"mode":4,"attributes":{"POSITION":24,"NORMAL":25,"TEXCOORD_0":26},"indices":27,"material":1}]},{"primitives":[{"mode":4,"attributes":{"POSITION":28,"NORMAL":29,"TEXCOORD_0":30},"indices":31,"material":1}]},{"primitives":[{"mode":4,"attributes":{"POSITION":32,"NORMAL":33,"TEXCOORD_0":34},"indices":35,"material":0}]},{"primitives":[{"mode":4,"attributes":{"POSITION":36,"NORMAL":37,"TEXCOORD_0":38},"indices":39,"material":1}]}],"animations":[{"name":"Walk","samplers":[{"input":40,"output":41,"interpolation":"LINEAR"},{"input":42,"output":43,"interpolation":"LINEAR"},{"input":44,"output":45,"interpolation":"LINEAR"},{"input":46,"output":47,"interpolation":"LINEAR"}],"channels":[{"sampler":0,"target":{"node":13,"path":"rotation"}},{"sampler":1,"target":{"node":15,"path":"rotation"}},{"sampler":2,"target":{"node":7,"path":"rotation"}},{"sampler":3,"target":{"node":9,"path":"rotation"}}]},{"name":"Idle","samplers":[{"input":48,"output":49,"interpolation":"LINEAR"},{"input":50,"output":51,"interpolation":"LINEAR"},{"input":52,"output":53,"interpolation":"LINEAR"},{"input":54,"output":55,"interpolation":"LINEAR"},{"input":56,"output":57,"interpolation":"LINEAR"},{"input":58,"output":59,"interpolation":"LINEAR"},{"input":60,"output":61,"interpolation":"LINEAR"},{"input":62,"output":63,"interpolation":"LINEAR"},{"input":64,"output":65,"interpolation":"LINEAR"},{"input":66,"output":67,"interpolation":"LINEAR"},{"input":68,"output":69,"interpolation":"LINEAR"},{"input":70,"output":71,"interpolation":"LINEAR"},{"input":72,"output":73,"interpolation":"LINEAR"},{"input":74,"output":75,"interpolation":"LINEAR"},{"input":76,"output":77,"interpolation":"LINEAR"},{"input":78,"output":79,"interpolation":"LINEAR"},{"input":80,"output":81,"interpolation":"LINEAR"},{"input":82,"output":83,"interpolation":"LINEAR"},{"input":84,"output":85,"interpolation":"LINEAR"},{"input":86,"output":87,"interpolation":"LINEAR"},{"input":88,"output":89,"interpolation":"LINEAR"},{"input":90,"output":91,"interpolation":"LINEAR"},{"input":92,"output":93,"interpolation":"LINEAR"},{"input":94,"output":95,"interpolation":"LINEAR"}],"channels":[{"sampler":0,"target":{"node":11,"path":"rotation"}},{"sampler":1,"target":{"node":11,"path":"translation"}},{"sampler":2,"target":{"node":11,"path":"scale"}},{"sampler":3,"target":{"node":5,"path":"rotation"}},{"sampler":4,"target":{"node":5,"path":"translation"}},{"sampler":5,"target":{"node":5,"path":"scale"}},{"sampler":6,"target":{"node":1,"path":"rotation"}},{"sampler":7,"target":{"node":1,"path":"translation"}},{"sampler":8,"target":{"node":1,"path":"scale"}},{"sampler":9,"target":{"node":3,"path":"rotation"}},{"sampler":10,"target":{"node":3,"path":"translation"}},{"sampler":11,"target":{"node":3,"path":"scale"}},{"sampler":12,"target":{"node":13,"path":"rotation"}},{"sampler":13,"target":{"node":13,"path":"translation"}},{"sampler":14,"target":{"node":13,"path":"scale"}},{"sampler":15,"target":{"node":15,"path":"rotation"}},{"sampler":16,"target":{"node":15,"path":"translation"}},{"sampler":17,"target":{"node":15,"path":"scale"}},{"sampler":18,"target":{"node":7,"path":"rotation"}},{"sampler":19,"target":{"node":7,"path":"translation"}},{"sampler":20,"target":{"node":7,"path":"scale"}},{"sampler":21,"target":{"node":9,"path":"rotation"}},{"sampler":22,"target":{"node":9,"path":"translation"}},{"sampler":23,"target":{"node":9,"path":"scale"}}]}]}