{"asset":{"version":"2.0","generator":"Blockbench 5.1.4 glTF exporter"},"scenes":[{"nodes":[0],"name":"blockbench_export"}],"scene":0,"nodes":[{"translation":[0,0.534375,0],"name":"mesh","mesh":0}],"bufferViews":[{"buffer":0,"byteOffset":0,"byteLength":2508,"target":34962,"byteStride":12},{"buffer":0,"byteOffset":2508,"byteLength":2508,"target":34962,"byteStride":12},{"buffer":0,"byteOffset":5016,"byteLength":1672,"target":34962,"byteStride":8},{"buffer":0,"byteOffset":6688,"byteLength":620,"target":34963}],"buffers":[{"byteLength":7308,"uri":"data:application/octet-stream;base64,"}],"accessors":[{"bufferView":0,"componentType":5126,"count":209,"max":[0.1484375,0.5406249761581421,0.17812499403953552],"min":[-0.1484375,-0.11874999850988388,-0.11406250298023224],"type":"VEC3"},{"bufferView":1,"componentType":5126,"count":209,"max":[1,0.9906865358352661,1],"min":[-1,-1,-1],"type":"VEC3"},{"bufferView":2,"componentType":5126,"count":209,"max":[0.6460937261581421,0.6465030908584595],"min":[0,0],"type":"VEC2"},{"bufferView":3,"componentType":5123,"count":309,"max":[208],"min":[0],"type":"SCALAR"}],"materials":[{"pbrMetallicRoughness":{"metallicFactor":0,"roughnessFactor":1,"baseColorTexture":{"index":0}},"alphaMode":"MASK","alphaCutoff":0.05,"doubleSided":true}],"textures":[{"sampler":0,"source":0,"name":"bodyarmor"}],"samplers":[{"magFilter":9728,"minFilter":9728,"wrapS":33071,"wrapT":33071}],"images":[{"mimeType":"image/png","uri":"data:image/png;base64,"}],"meshes":[{"primitives":[{"mode":4,"attributes":{"POSITION":0,"NORMAL":1,"TEXCOORD_0":2},"indices":3,"material":0}]}]}