{"asset":{"version":"2.0","generator":"Blockbench 5.1.4 glTF exporter"},"scenes":[{"nodes":[0,1,2],"name":"blockbench_export"}],"scene":0,"nodes":[{"name":"base","mesh":0},{"translation":[0,-0.13359375,0],"name":"tube","mesh":1},{"translation":[0,0.4921875,0],"name":"body","mesh":2}],"bufferViews":[{"buffer":0,"byteOffset":0,"byteLength":960,"target":34962,"byteStride":12},{"buffer":0,"byteOffset":960,"byteLength":960,"target":34962,"byteStride":12},{"buffer":0,"byteOffset":1920,"byteLength":640,"target":34962,"byteStride":8},{"buffer":0,"byteOffset":2560,"byteLength":192,"target":34963},{"buffer":0,"byteOffset":2752,"byteLength":960,"target":34962,"byteStride":12},{"buffer":0,"byteOffset":3712,"byteLength":960,"target":34962,"byteStride":12},{"buffer":0,"byteOffset":4672,"byteLength":640,"target":34962,"byteStride":8},{"buffer":0,"byteOffset":5312,"byteLength":192,"target":34963},{"buffer":0,"byteOffset":5504,"byteLength":1056,"target":34962,"byteStride":12},{"buffer":0,"byteOffset":6560,"byteLength":1056,"target":34962,"byteStride":12},{"buffer":0,"byteOffset":7616,"byteLength":704,"target":34962,"byteStride":8},{"buffer":0,"byteOffset":8320,"byteLength":264,"target":34963}],"buffers":[{"byteLength":8584,"uri":"data:application/octet-stream;base64,"}],"accessors":[{"bufferView":0,"componentType":5126,"count":80,"max":[0.25,0.25,0.25],"min":[-0.25,0,-0.25],"type":"VEC3"},{"bufferView":1,"componentType":5126,"count":80,"max":[1,1,1],"min":[-1,-1,-1],"type":"VEC3"},{"bufferView":2,"componentType":5126,"count":80,"max":[0.4296875,0.4375],"min":[0,0],"type":"VEC2"},{"bufferView":3,"componentType":5123,"count":96,"max":[79],"min":[0],"type":"SCALAR"},{"bufferView":4,"componentType":5126,"count":80,"max":[0.08749999850988388,0.717968761920929,0.08749999850988388],"min":[-0.08749999850988388,0.28203123807907104,-0.08749999850988388],"type":"VEC3"},{"bufferView":5,"componentType":5126,"count":80,"max":[1,1,1],"min":[-1,-1,-1],"type":"VEC3"},{"bufferView":6,"componentType":5126,"count":80,"max":[0.4593749940395355,0.5625],"min":[0.0015625000232830644,0.40625],"type":"VEC2"},{"bufferView":7,"componentType":5123,"count":96,"max":[79],"min":[0],"type":"SCALAR"},{"bufferView":8,"componentType":5126,"count":88,"max":[0.27812498807907104,1,0.125],"min":[-0.27812498807907104,0,-0.125],"type":"VEC3"},{"bufferView":9,"componentType":5126,"count":88,"max":[1,1,1],"min":[-1,-1,-1],"type":"VEC3"},{"bufferView":10,"componentType":5126,"count":88,"max":[0.4765625,0.4609375],"min":[0,0],"type":"VEC2"},{"bufferView":11,"componentType":5123,"count":132,"max":[87],"min":[0],"type":"SCALAR"}],"materials":[{"pbrMetallicRoughness":{"metallicFactor":0,"roughnessFactor":1,"baseColorTexture":{"index":0}},"alphaMode":"MASK","alphaCutoff":0.05,"doubleSided":true}],"textures":[{"sampler":0,"source":0,"name":"dummy_texture.png"}],"samplers":[{"magFilter":9728,"minFilter":9728,"wrapS":33071,"wrapT":33071}],"images":[{"mimeType":"image/png","uri":"data:image/png;base64,"}],"meshes":[{"primitives":[{"mode":4,"attributes":{"POSITION":0,"NORMAL":1,"TEXCOORD_0":2},"indices":3,"material":0}]},{"primitives":[{"mode":4,"attributes":{"POSITION":4,"NORMAL":5,"TEXCOORD_0":6},"indices":7,"material":0}]},{"primitives":[{"mode":4,"attributes":{"POSITION":8,"NORMAL":9,"TEXCOORD_0":10},"indices":11,"material":0}]}]}