{"asset":{"version":"2.0","generator":"Blockbench 5.1.4 glTF exporter"},"scenes":[{"nodes":[0,1,2,3],"name":"blockbench_export"}],"scene":0,"nodes":[{"rotation":[0,-1,0,6.123233995736766e-17],"translation":[0,-0.20312500000000003,0.3484375000000001],"name":"stock","mesh":0},{"rotation":[0,-1,0,6.123233995736766e-17],"translation":[0,-0.18281250000000002,0.47031250000000074],"name":"barrel","mesh":1},{"rotation":[0,-1,0,6.123233995736766e-17],"translation":[0,-0.11249999999999999,0.16718750000000007],"name":"scope","mesh":2},{"rotation":[0,-1,0,6.123233995736766e-17],"translation":[0,-0.11249999999999999,0.16718750000000007],"name":"scope","mesh":3}],"bufferViews":[{"buffer":0,"byteOffset":0,"byteLength":3264,"target":34962,"byteStride":12},{"buffer":0,"byteOffset":3264,"byteLength":3264,"target":34962,"byteStride":12},{"buffer":0,"byteOffset":6528,"byteLength":2176,"target":34962,"byteStride":8},{"buffer":0,"byteOffset":8704,"byteLength":816,"target":34963},{"buffer":0,"byteOffset":9520,"byteLength":1824,"target":34962,"byteStride":12},{"buffer":0,"byteOffset":11344,"byteLength":1824,"target":34962,"byteStride":12},{"buffer":0,"byteOffset":13168,"byteLength":1216,"target":34962,"byteStride":8},{"buffer":0,"byteOffset":14384,"byteLength":456,"target":34963},{"buffer":0,"byteOffset":14840,"byteLength":1056,"target":34962,"byteStride":12},{"buffer":0,"byteOffset":15896,"byteLength":1056,"target":34962,"byteStride":12},{"buffer":0,"byteOffset":16952,"byteLength":704,"target":34962,"byteStride":8},{"buffer":0,"byteOffset":17656,"byteLength":264,"target":34963},{"buffer":0,"byteOffset":17920,"byteLength":1056,"target":34962,"byteStride":12},{"buffer":0,"byteOffset":18976,"byteLength":1056,"target":34962,"byteStride":12},{"buffer":0,"byteOffset":20032,"byteLength":704,"target":34962,"byteStride":8},{"buffer":0,"byteOffset":20736,"byteLength":264,"target":34963}],"buffers":[{"byteLength":21000,"uri":"data:application/octet-stream;base64,"}],"accessors":[{"bufferView":0,"componentType":5126,"count":272,"max":[0.02031249925494194,0.27812498807907104,0.620312511920929],"min":[-0.02031249925494194,0.11093749850988388,-0.25],"type":"VEC3"},{"bufferView":1,"componentType":5126,"count":272,"max":[1,1,1],"min":[-1,-1,-1],"type":"VEC3"},{"bufferView":2,"componentType":5126,"count":272,"max":[0.6484375,0.7734375],"min":[0,0],"type":"VEC2"},{"bufferView":3,"componentType":5123,"count":408,"max":[271],"min":[0],"type":"SCALAR"},{"bufferView":4,"componentType":5126,"count":152,"max":[0.015625,0.31718748807907104,0.37812501192092896],"min":[-0.015625,0.234375,-0.5],"type":"VEC3"},{"bufferView":5,"componentType":5126,"count":152,"max":[1,1,1],"min":[-1,-1,-1],"type":"VEC3"},{"bufferView":6,"componentType":5126,"count":152,"max":[0.671875,0.9765625],"min":[0.002762499963864684,0],"type":"VEC2"},{"bufferView":7,"componentType":5123,"count":228,"max":[151],"min":[0],"type":"SCALAR"},{"bufferView":8,"componentType":5126,"count":88,"max":[0.04062499850988388,0.2906250059604645,0.109375],"min":[-0.04062499850988388,0.20937499403953552,-0.2718749940395355],"type":"VEC3"},{"bufferView":9,"componentType":5126,"count":88,"max":[1,1,1],"min":[-1,-1,-1],"type":"VEC3"},{"bufferView":10,"componentType":5126,"count":88,"max":[0.6015625,0.6312187910079956],"min":[0.0031250000465661287,0],"type":"VEC2"},{"bufferView":11,"componentType":5123,"count":132,"max":[87],"min":[0],"type":"SCALAR"},{"bufferView":12,"componentType":5126,"count":88,"max":[0.04062499850988388,0.2906250059604645,0.109375],"min":[-0.04062499850988388,0.20937499403953552,-0.2718749940395355],"type":"VEC3"},{"bufferView":13,"componentType":5126,"count":88,"max":[1,1,1],"min":[-1,-1,-1],"type":"VEC3"},{"bufferView":14,"componentType":5126,"count":88,"max":[0.6015625,0.6312187910079956],"min":[0.0031250000465661287,0],"type":"VEC2"},{"bufferView":15,"componentType":5123,"count":132,"max":[87],"min":[0],"type":"SCALAR"}],"materials":[{"pbrMetallicRoughness":{"metallicFactor":0,"roughnessFactor":1,"baseColorTexture":{"index":0}},"alphaMode":"MASK","alphaCutoff":0.05,"doubleSided":true}],"textures":[{"sampler":0,"source":0,"name":"texture"}],"samplers":[{"magFilter":9728,"minFilter":9728,"wrapS":33071,"wrapT":33071}],"images":[{"mimeType":"image/png","uri":"data:image/png;base64,"}],"meshes":[{"primitives":[{"mode":4,"attributes":{"POSITION":0,"NORMAL":1,"TEXCOORD_0":2},"indices":3,"material":0}]},{"primitives":[{"mode":4,"attributes":{"POSITION":4,"NORMAL":5,"TEXCOORD_0":6},"indices":7,"material":0}]},{"primitives":[{"mode":4,"attributes":{"POSITION":8,"NORMAL":9,"TEXCOORD_0":10},"indices":11,"material":0}]},{"primitives":[{"mode":4,"attributes":{"POSITION":12,"NORMAL":13,"TEXCOORD_0":14},"indices":15,"material":0}]}]}